# xmcd
#
# Track frame offsets:
#   150
#   4440
#   25541
#   52745
#   69000
#   84363
#   103854
#   121523
#   135768
#   140777
#   154928
#
# Disc length: 2107 seconds
#
# Revision: 0
# Processed by: cddbd v1.5.1PL0 Copyright (c) Steve Scherf et al.
# Submitted via: uFREEDB 1.6.0
#
DISCID=7b08390b
DTITLE=Franc Kosir - Ej ga ta spasen
DYEAR=2001
DGENRE=Country
TTITLE0=Prelepa Gorenjska
TTITLE1=Z marelo naokrog
TTITLE2=Mladostni spomini Mladost hitro mine
TTITLE3=Radovedni astronavt - Franc
TTITLE4=Kosirjeva gledaliska kariera - Spomin
TTITLE5=Superavtomat
TTITLE6=Bul - Buljer - Tam dalec prek morja
TTITLE7=Oh, ta gripa
TTITLE8=Strelska nagrada
TTITLE9=Na oroznih vajah - Slovenski pozdrav
TTITLE10=Prelepa Gorenjska
EXTD=
EXTT0=
EXTT1=
EXTT2=
EXTT3=
EXTT4=
EXTT5=
EXTT6=
EXTT7=
EXTT8=
EXTT9=
EXTT10=
PLAYORDER=
